<svg
  xmlns="http://www.w3.org/2000/svg"
  viewBox="0 0 32 32"
  width="32"
  height="32"
  fill="currentColor"
>
  <path
    d="m 18.786975,16.003055 a 2.7930872,2.7930872 0 0 1 -2.793086,2.793088 2.7930872,2.7930872 0 0 1 -2.793088,-2.793088 2.7930872,2.7930872 0 0 1 2.793088,-2.793088 2.7930872,2.7930872 0 0 1 2.793086,2.793088 z m 12.205241,0 c 0,-1.98633 -2.487498,-3.868762 -6.301254,-5.036113 C 25.571059,7.0798452 25.179905,3.9872805 23.456381,2.9971708 23.059115,2.764923 22.594619,2.6549107 22.087341,2.6549107 v 1.3629287 c 0.281141,0 0.507278,0.055006 0.696743,0.1589066 0.831203,0.4767195 1.191799,2.2919204 0.910657,4.6266236 C 23.627511,9.377877 23.517499,9.9829444 23.38304,10.600234 22.185129,10.306869 20.877207,10.080733 19.502056,9.9340495 18.676964,8.8033695 17.821313,7.776589 16.959552,6.8781562 18.951995,5.0262845 20.822201,4.0117277 22.093452,4.0117277 V 2.6487989 c 0,0 0,0 0,0 -1.680742,0 -3.880984,1.1979105 -6.105675,3.2759184 C 13.763086,3.8589329 11.562843,2.673246 9.8821007,2.673246 v 1.3629288 c 1.2651413,0 3.1414593,1.008445 5.1339023,2.8480932 -0.85565,0.8984328 -1.711301,1.9191015 -2.524168,3.0497815 C 11.110571,10.080733 9.8026483,10.306869 8.6047361,10.606347 8.4641651,9.9951681 8.3602653,9.4023244 8.2869231,8.8339285 7.99967,6.4992253 8.3541529,4.6840244 9.1792448,4.201193 9.3625982,4.0911809 9.6009588,4.0422867 9.8821007,4.0422867 V 2.6793578 c 0,0 0,0 0,0 -0.5133912,0 -0.9778864,0.1100123 -1.3812644,0.3422603 -1.7174125,0.9901097 -2.1024554,4.0765624 -1.2162461,7.9514359 -3.8015318,1.173463 -6.2768064,3.049783 -6.2768064,5.030001 0,1.986332 2.4874983,3.868763 6.3012538,5.036114 -0.880098,3.887097 -0.4889438,6.979661 1.2345811,7.969772 0.3972656,0.232248 0.8617619,0.34226 1.3751532,0.34226 1.6807411,0 3.8809851,-1.197911 6.1056771,-3.275919 2.22469,2.065784 4.424933,3.251472 6.105674,3.251472 0.51339,0 0.977887,-0.110015 1.381264,-0.342261 1.717413,-0.990109 2.102456,-4.076562 1.216247,-7.951436 3.789308,-1.167352 6.264582,-3.049782 6.264582,-5.030002 z m -7.957549,-4.076562 c -0.226136,0.78842 -0.507277,1.601288 -0.82509,2.414157 -0.250584,-0.488943 -0.513391,-0.977887 -0.800645,-1.466831 -0.281142,-0.488942 -0.58062,-0.965661 -0.880097,-1.430158 0.867873,0.128347 1.705189,0.287255 2.505832,0.482832 z m -2.799199,6.509054 c -0.476718,0.825092 -0.96566,1.607401 -1.472939,2.334703 -0.910657,0.07945 -1.833536,0.122236 -2.762528,0.122236 -0.92288,0 -1.84576,-0.04279 -2.750305,-0.116124 -0.507278,-0.727303 -1.002333,-1.5035 -1.479052,-2.32248 -0.464496,-0.800643 -0.886209,-1.613511 -1.271252,-2.432491 0.37893,-0.818979 0.806756,-1.637959 1.26514,-2.438604 0.47672,-0.825091 0.965662,-1.607401 1.47294,-2.334703 0.910657,-0.07945 1.833537,-0.122236 2.762529,-0.122236 0.922879,0 1.84576,0.04279 2.750304,0.116124 0.507279,0.727303 1.002334,1.5035 1.479052,2.32248 0.464495,0.800645 0.886209,1.613512 1.271252,2.432492 -0.385043,0.818979 -0.806757,1.637959 -1.265141,2.438603 z m 1.974109,-0.794532 c 0.330036,0.81898 0.611178,1.637959 0.843426,2.432491 -0.800644,0.195577 -1.644071,0.360596 -2.518057,0.488943 0.299478,-0.470608 0.598955,-0.953438 0.880098,-1.448493 0.281142,-0.488943 0.543949,-0.983998 0.794533,-1.472941 z m -6.197352,6.521277 C 15.443829,23.575561 14.875432,22.9216 14.313147,22.20652 c 0.550062,0.02445 1.112345,0.04278 1.680742,0.04278 0.574508,0 1.142905,-0.01222 1.699077,-0.04278 -0.550061,0.71508 -1.118457,1.369041 -1.680741,1.955772 z m -4.54717,-3.599843 C 10.59718,20.434102 9.7598659,20.275196 8.9592203,20.079619 9.1853561,19.291198 9.466498,18.47833 9.7843122,17.665461 c 0.2505828,0.488944 0.5133898,0.977887 0.8006448,1.46683 0.287254,0.488944 0.58062,0.965663 0.880098,1.430158 z m 4.51661,-12.7186304 c 0.568396,0.5867317 1.136794,1.2406932 1.699078,1.9557724 -0.550062,-0.024445 -1.112346,-0.042785 -1.680742,-0.042785 -0.574509,0 -1.142905,0.012223 -1.699077,0.042785 0.550061,-0.7150792 1.118457,-1.3690407 1.680741,-1.9557724 z m -4.522723,3.5998424 c -0.299477,0.470608 -0.598955,0.953439 -0.880097,1.448495 -0.281143,0.488942 -0.54395,0.977886 -0.7945328,1.466829 -0.3300379,-0.818981 -0.6111798,-1.63796 -0.843428,-2.432492 0.8006456,-0.189466 1.6440728,-0.354485 2.5180578,-0.482832 z m -5.531169,7.65196 C 3.7642003,18.17274 2.3646009,16.962607 2.3646009,16.003055 c 0,-0.959549 1.3995994,-2.175795 3.5631721,-3.092564 0.525614,-0.226136 1.1001216,-0.427826 1.6929652,-0.617292 0.3483718,1.197912 0.8067558,2.444717 1.3751521,3.72208 C 8.4336064,17.286531 7.9813337,18.527225 7.6390744,19.719023 7.0340071,19.529557 6.4594983,19.321757 5.927773,19.095621 Z m 3.2881418,8.733745 C 8.3847117,27.352645 8.0241161,25.537444 8.3052592,23.202742 c 0.06723,-0.574508 0.1772409,-1.179575 0.3117006,-1.796866 1.1979122,0.293365 2.5058342,0.519502 3.8809862,0.666185 0.825092,1.130681 1.680742,2.157461 2.542505,3.055894 -1.992443,1.851872 -3.862651,2.866429 -5.1339028,2.866429 -0.2750307,-0.0061 -0.5072789,-0.06111 -0.6906334,-0.165018 z M 23.713076,23.172183 c 0.287254,2.334703 -0.06723,4.149904 -0.892321,4.632735 -0.183353,0.110015 -0.421713,0.158907 -0.702856,0.158907 -1.26514,0 -3.141457,-1.008445 -5.1339,-2.848094 0.855651,-0.898433 1.7113,-1.9191 2.524168,-3.049782 1.381264,-0.146683 2.689186,-0.372819 3.887096,-0.672297 0.140572,0.617291 0.250584,1.210135 0.317813,1.778531 z m 2.353038,-4.076562 c -0.525613,0.226136 -1.100121,0.427824 -1.692965,0.61729 -0.348371,-1.19791 -0.806755,-2.444715 -1.375152,-3.722078 0.562284,-1.271253 1.014557,-2.511946 1.356817,-3.703745 0.605067,0.189466 1.179575,0.397267 1.717413,0.623403 2.163573,0.92288 3.563172,2.133015 3.563172,3.092564 -0.0061,0.959552 -1.405712,2.175797 -3.569285,3.092566 z"
  />
</svg>
