<svg xmlns="http://www.w3.org/2000/svg" viewBox="0 0 71 77">
  <g class="nc-icon-wrapper">
    <defs>
      <linearGradient
        x1="49.985%"
        y1="14.938%"
        x2="49.985%"
        y2="99.464%"
        id="linearGradient-1"
      >
        <stop stop-color="#00EBD0" stop-opacity="0" offset="41%"></stop>
        <stop stop-color="#000" stop-opacity=".2" offset="94%"></stop>
      </linearGradient>
      <linearGradient
        x1="49.864%"
        y1="3.048%"
        x2="49.864%"
        y2="99.016%"
        id="linearGradient-2"
      >
        <stop stop-color="#00EBD0" stop-opacity="0" offset="41%"></stop>
        <stop stop-color="#000" stop-opacity=".2" offset="94%"></stop>
      </linearGradient>
      <linearGradient
        x1=".043%"
        y1="50.041%"
        x2="100.101%"
        y2="50.041%"
        id="linearGradient-3"
      >
        <stop stop-color="#00EBD0" stop-opacity="0" offset="54%"></stop>
        <stop stop-color="#000" stop-opacity=".2" offset="100%"></stop>
      </linearGradient>
    </defs>
    <g
      id="1.-Tokens"
      stroke="none"
      stroke-width="1"
      fill="none"
      fill-rule="evenodd"
    >
      <g id="Tokens---Icons" transform="translate(-868 -1171)">
        <g
          id="BBRA-Ícones-de-Comunicação-33"
          transform="translate(868.367 1171.275)"
        >
          <g id="Vetor_Sombra">
            <ellipse
              id="Oval"
              fill="#465EFF"
              fill-rule="nonzero"
              opacity=".15"
              style="mix-blend-mode: multiply"
              cx="23.896"
              cy="73.651"
              rx="23.324"
              ry="1.491"
            ></ellipse>
            <path
              d="M62.576 27.393a9.441 9.441 0 0 0 1.928-5.773c0-4.95-3.638-8.93-8.123-8.93-.26 0-.516 0-.77.038a9.203 9.203 0 0 0 .77-3.713c0-4.807-2.761-8.706-8.123-8.706h-.068c-5.355 0-8.123 3.899-8.123 8.706a9.203 9.203 0 0 0 .771 3.713c-.255 0-.51-.037-.77-.037-4.485 0-8.118 3.997-8.118 8.929a9.441 9.441 0 0 0 1.922 5.773c-3.993.686-7.022 3.892-7.022 7.74 0 4.332 3.863 7.883 8.633 7.883h25.5c4.771 0 8.634-3.533 8.634-7.883-.019-3.848-3.067-7.054-7.04-7.74z"
              id="Path"
              fill="#00EBD0"
              fill-rule="nonzero"
            ></path>
            <path
              d="M62.576 27.393a9.441 9.441 0 0 0 1.928-5.773c0-4.95-3.638-8.93-8.123-8.93-.26 0-.516 0-.77.038a9.203 9.203 0 0 0 .77-3.713c0-4.807-2.761-8.706-8.123-8.706h-.068c-5.355 0-8.123 3.899-8.123 8.706a9.203 9.203 0 0 0 .771 3.713c-.255 0-.51-.037-.77-.037-4.485 0-8.118 3.997-8.118 8.929a9.441 9.441 0 0 0 1.922 5.773c-3.993.686-7.022 3.892-7.022 7.74 0 4.332 3.863 7.883 8.633 7.883h25.5c4.771 0 8.634-3.533 8.634-7.883-.019-3.848-3.067-7.054-7.04-7.74z"
              id="Path"
              fill="url(#linearGradient-1)"
              fill-rule="nonzero"
              opacity=".8"
              style="mix-blend-mode: multiply"
            ></path>
            <path
              id="Path"
              stroke="#4C4C4C"
              stroke-width="2"
              d="M48.445 39.861l7.812-8.465"
            ></path>
            <path
              id="Path"
              stroke="#4C4C4C"
              stroke-width="2"
              d="M48.277 28.543l6.618-6.329"
            ></path>
            <path
              id="Path"
              stroke="#4C4C4C"
              stroke-width="2"
              d="M41.373 27.096l6.618 6.329"
            ></path>
            <path
              id="Path"
              fill="#735CC6"
              fill-rule="nonzero"
              d="M48.787 20.122h-.914l-.69 38.982h2.294z"
            ></path>
            <path
              id="Path"
              fill="url(#linearGradient-2)"
              fill-rule="nonzero"
              opacity=".8"
              style="mix-blend-mode: multiply"
              d="M48.787 20.122h-.914l-.69 38.982h2.294z"
            ></path>
            <path
              d="M29.923 19.503H14S5.293 35.381 2.805 41.636C1.561 44.774.491 47.98.491 51.345c0 4.108 3.365 7.122 7.464 7.425 7.34.57 20.78.662 28.026 0 4.111-.371 7.463-3.329 7.463-7.425 0-3.385-1.026-6.62-2.338-9.752-2.42-5.866-11.183-22.09-11.183-22.09z"
              id="Path"
              fill="#465EFF"
              fill-rule="nonzero"
            ></path>
            <path
              d="M29.923 19.503H14S5.293 35.381 2.805 41.636C1.561 44.774.491 47.98.491 51.345c0 4.108 3.365 7.122 7.464 7.425 7.34.57 20.78.662 28.026 0 4.111-.371 7.463-3.329 7.463-7.425 0-3.385-1.026-6.62-2.338-9.752-2.42-5.866-11.183-22.09-11.183-22.09z"
              id="Path"
              fill="url(#linearGradient-3)"
              fill-rule="nonzero"
              opacity=".8"
              style="mix-blend-mode: multiply"
            ></path>
            <ellipse
              id="Oval"
              fill="#FFEC8D"
              fill-rule="nonzero"
              cx="21.657"
              cy="39.304"
              rx="8.708"
              ry="10.519"
            ></ellipse>
            <path
              d="M29.742 19.503H13.876l-2.737-8.136s5.48.068 10.736 0c5.255-.068 10.741 0 10.741 0l-2.867 8.1"
              id="Path"
              fill="#465EFF"
              fill-rule="nonzero"
            ></path>
            <path
              d="M10.573 22.461l4.13-3.273-.18 5.247a2.473 2.473 0 0 1-1.216 1.994 2.5 2.5 0 0 1-2.342.103 2.432 2.432 0 0 1-.392-4.071z"
              id="Path"
              stroke="#4C4C4C"
              stroke-width="2"
            ></path>
            <path
              d="M9.553 18.068l5.163 1.089-2.488-4.616a2.493 2.493 0 0 0-4.142-.31 2.464 2.464 0 0 0-.292 2.307c.294.77.954 1.343 1.76 1.53z"
              id="Path"
              stroke="#4C4C4C"
              stroke-width="2"
            ></path>
            <path
              id="Path"
              stroke="#4C4C4C"
              stroke-width="2"
              d="M19.548 19.745l-1.181-4.604"
            ></path>
            <path
              id="Path"
              stroke="#4C4C4C"
              stroke-width="2"
              d="M24.555 19.745l.952-4.604"
            ></path>
            <path
              d="M19.144 41.643a2.532 2.532 0 0 0 2.535 2.4 2.532 2.532 0 0 0 2.534-2.4c0-1.33-1.287-2.011-2.531-2.407-1.337-.427-2.538-1.083-2.538-2.414a2.532 2.532 0 0 1 2.535-2.4 2.532 2.532 0 0 1 2.534 2.4"
              id="Path"
              stroke="#4C4C4C"
              stroke-width="1.5"
              stroke-linejoin="round"
            ></path>
            <path
              id="Path"
              stroke="#4C4C4C"
              stroke-width="1.5"
              stroke-linejoin="round"
              d="M21.657 34.354v-1.857"
            ></path>
            <path
              id="Path"
              stroke="#4C4C4C"
              stroke-width="1.5"
              stroke-linejoin="round"
              d="M21.657 45.491v-1.237"
            ></path>
            <path
              id="Path"
              stroke="#4C4C4C"
              stroke-width="2"
              d="M13.571 19.503h16.793"
            ></path>
            <path
              id="Path"
              d="M21.657 21.36l8.863-.724-.634-1.46.478-1.529-17.415 1.238.523 1.844z"
            ></path>
          </g>
          <g
            id="Textura"
            transform="translate(12.915 18.68)"
            fill="#4C4C4C"
            fill-rule="nonzero"
          >
            <path id="Path" d="M.457 0L.115.025l.392 1.398"></path>
          </g>
        </g>
      </g>
    </g>
  </g>
</svg>
