<svg
  width="24"
  height="24"
  viewBox="0 0 24 24"
  fill="none"
  xmlns="http://www.w3.org/2000/svg"
>
  <g id="Icon / L / Close">
    <g id="Icon">
      <path
        fill-rule="evenodd"
        clip-rule="evenodd"
        d="M19.1946 4.16721C19.1168 4.05711 19.005 4.00003 18.8923 4.00003C18.8029 4.00003 18.7127 4.0359 18.6391 4.10951L11.6435 11.0746L4.64753 4.1092C4.48061 3.94326 4.23195 3.96946 4.09211 4.16721C3.95227 4.36496 3.97409 4.66001 4.141 4.82626L11.3461 11.9999L4.141 19.1737C3.97409 19.34 3.95227 19.6347 4.09211 19.8328C4.16992 19.9429 4.28163 20 4.3944 20C4.48377 20 4.57393 19.9641 4.64753 19.8905L11.6432 12.9254L18.6391 19.8908C18.8061 20.0567 19.0547 20.0305 19.1946 19.8328C19.3344 19.635 19.3126 19.34 19.1457 19.1737L11.9406 12.0001L19.1457 4.82626C19.3126 4.66001 19.3344 4.36527 19.1946 4.16721Z"
      />
      <path
        d="M19.1946 4.16721L19.8072 3.73462L19.8071 3.73437L19.1946 4.16721ZM18.6391 4.10951L19.1683 4.641L19.1695 4.63981L18.6391 4.10951ZM11.6435 11.0746L11.1143 11.6061L11.6435 12.1329L12.1726 11.6061L11.6435 11.0746ZM4.64753 4.1092L5.1767 3.57771L5.17629 3.5773L4.64753 4.1092ZM4.09211 4.16721L4.70447 4.60025L4.09211 4.16721ZM4.141 4.82626L3.61174 5.35765L3.61184 5.35775L4.141 4.82626ZM11.3461 11.9999L11.8753 12.5314L12.4091 11.9999L11.8753 11.4684L11.3461 11.9999ZM4.141 19.1737L3.61183 18.6423L3.61174 18.6423L4.141 19.1737ZM4.09211 19.8328L3.47944 20.2654L3.47961 20.2656L4.09211 19.8328ZM4.64753 19.8905L4.11836 19.359L4.11717 19.3602L4.64753 19.8905ZM11.6432 12.9254L12.1724 12.3939L11.6432 11.8671L11.114 12.3939L11.6432 12.9254ZM18.6391 19.8908L18.11 20.4223L18.1104 20.4227L18.6391 19.8908ZM19.1946 19.8328L18.5822 19.3997L18.5822 19.3997L19.1946 19.8328ZM19.1457 19.1737L19.6749 18.6423L19.6748 18.6423L19.1457 19.1737ZM11.9406 12.0001L11.4114 11.4686L10.8776 12.0001L11.4114 12.5316L11.9406 12.0001ZM19.1457 4.82626L19.6748 5.35774L19.6749 5.35765L19.1457 4.82626ZM18.8923 4.75003C18.7409 4.75003 18.6325 4.6714 18.5821 4.60005L19.8071 3.73437C19.601 3.44282 19.2692 3.25003 18.8923 3.25003V4.75003ZM19.1695 4.63981C19.1085 4.70086 19.0102 4.75003 18.8923 4.75003V3.25003C18.5956 3.25003 18.317 3.37094 18.1088 3.57921L19.1695 4.63981ZM12.1726 11.6061L19.1683 4.641L18.11 3.57802L11.1143 10.5431L12.1726 11.6061ZM4.11836 4.64069L11.1143 11.6061L12.1726 10.5431L5.1767 3.57771L4.11836 4.64069ZM4.70447 4.60025C4.65983 4.66336 4.56901 4.734 4.43779 4.74774C4.30389 4.76177 4.18773 4.70964 4.11877 4.64109L5.17629 3.5773C4.94042 3.34282 4.61646 3.22083 4.28155 3.2559C3.9493 3.2907 3.66423 3.47331 3.47976 3.73417L4.70447 4.60025ZM4.67026 4.29486C4.73189 4.35624 4.74692 4.41863 4.74947 4.45312C4.75207 4.48816 4.74571 4.54192 4.70447 4.60025L3.47976 3.73417C3.13779 4.21775 3.17458 4.92225 3.61174 5.35765L4.67026 4.29486ZM11.8753 11.4684L4.67017 4.29477L3.61184 5.35775L10.8169 12.5314L11.8753 11.4684ZM4.67018 19.7052L11.8753 12.5314L10.8169 11.4684L3.61183 18.6423L4.67018 19.7052ZM4.70479 19.4002C4.74562 19.458 4.75209 19.5115 4.74947 19.5468C4.7469 19.5815 4.73178 19.6439 4.67026 19.7051L3.61174 18.6423C3.17442 19.0779 3.13806 19.7819 3.47944 20.2654L4.70479 19.4002ZM4.3944 19.25C4.54579 19.25 4.65418 19.3286 4.70461 19.4L3.47961 20.2656C3.68565 20.5572 4.01748 20.75 4.3944 20.75V19.25ZM4.11717 19.3602C4.17821 19.2991 4.2765 19.25 4.3944 19.25V20.75C4.69104 20.75 4.96964 20.6291 5.17789 20.4208L4.11717 19.3602ZM11.114 12.3939L4.11836 19.359L5.17669 20.422L12.1724 13.4569L11.114 12.3939ZM19.1683 19.3593L12.1724 12.3939L11.114 13.4569L18.11 20.4223L19.1683 19.3593ZM18.5822 19.3997C18.6268 19.3366 18.7177 19.266 18.8489 19.2523C18.9828 19.2382 19.0989 19.2904 19.1679 19.3589L18.1104 20.4227C18.3463 20.6572 18.6702 20.7792 19.0051 20.7441C19.3374 20.7093 19.6224 20.5267 19.8069 20.2658L18.5822 19.3997ZM18.6164 19.7051C18.5548 19.6438 18.5398 19.5814 18.5372 19.5469C18.5346 19.5118 18.541 19.4581 18.5822 19.3997L19.8069 20.2658C20.1489 19.7823 20.1121 19.0777 19.6749 18.6423L18.6164 19.7051ZM11.4114 12.5316L18.6165 19.7052L19.6748 18.6423L12.4697 11.4686L11.4114 12.5316ZM18.6165 4.29478L11.4114 11.4686L12.4697 12.5316L19.6748 5.35774L18.6165 4.29478ZM18.5819 4.59979C18.541 4.54196 18.5346 4.48847 18.5372 4.45322C18.5398 4.41852 18.5549 4.35613 18.6164 4.29486L19.6749 5.35765C20.1123 4.92209 20.1486 4.21812 19.8072 3.73462L18.5819 4.59979Z"
      />
    </g>
  </g>
</svg>
